PathFileType	3	(X/Y/Z)	D:\Vicon Database\Healthy Subjects\S0040\Jan. 30, 2020\Force Plate Walk 3.trc
DataRate	CameraRate	NumFrames	NumMarkers	Units	OrigDataRate	OrigDataStartFrame	OrigNumFrames
100.0	100.0	4	53	mm	100.0	334	290	
Frame#	Time	right_foot_cluster2			right_foot_cluster3			sternum_cluster1			sternum_cluster2			sternum_cluster3			left_asis			right_asis			left_psis			right_psis			sacrum_cluster1			sacrum_cluster2			sacrum_cluster3			left_lat_femoral_epicondyle			left_anterior_thigh15			left_anterior_thigh25			left_anterior_thigh50			left_lateral_thigh25			left_lateral_thigh50			left_thigh_cluster1			left_thigh_cluster2			left_thigh_cluster3			left_fibular_head			left_tibial_tuberosity			left_anterior_shank30			left_lateral_malleolus			left_shank_cluster1			left_shank_cluster2			left_shank_cluster3			left_heel			left_metatarsal2			left_foot_cluster1			left_foot_cluster2			left_foot_cluster3			right_lat_femoral_epicondyle			right_anterior_thigh15			right_anterior_thigh25			right_anterior_thigh50			right_lateral_thigh25			right_lateral_thigh50			right_thigh_cluster1			right_thigh_cluster2			right_thigh_cluster3			right_fibular_head			right_tibial_tuberosity			right_lateral_distal_shank			right_anterior_shank30			right_lateral_malleolus			right_shank_cluster1			right_shank_cluster2			right_shank_cluster3			right_heel			right_metatarsal2			right_foot_cluster1			
		X1	Y1	Z1	X2	Y2	Z2	X3	Y3	Z3	X4	Y4	Z4	X5	Y5	Z5	X6	Y6	Z6	X7	Y7	Z7	X8	Y8	Z8	X9	Y9	Z9	X10	Y10	Z10	X11	Y11	Z11	X12	Y12	Z12	X13	Y13	Z13	X14	Y14	Z14	X15	Y15	Z15	X16	Y16	Z16	X17	Y17	Z17	X18	Y18	Z18	X19	Y19	Z19	X20	Y20	Z20	X21	Y21	Z21	X22	Y22	Z22	X23	Y23	Z23	X24	Y24	Z24	X25	Y25	Z25	X26	Y26	Z26	X27	Y27	Z27	X28	Y28	Z28	X29	Y29	Z29	X30	Y30	Z30	X31	Y31	Z31	X32	Y32	Z32	X33	Y33	Z33	X34	Y34	Z34	X35	Y35	Z35	X36	Y36	Z36	X37	Y37	Z37	X38	Y38	Z38	X39	Y39	Z39	X40	Y40	Z40	X41	Y41	Z41	X42	Y42	Z42	X43	Y43	Z43	X44	Y44	Z44	X45	Y45	Z45	X46	Y46	Z46	X47	Y47	Z47	X48	Y48	Z48	X49	Y49	Z49	X50	Y50	Z50	X51	Y51	Z51	X52	Y52	Z52	X53	Y53	Z53	
334	3.33	3526.8262	118.74913	-180.71532	3527.1848	117.74089	-218.35632	3079.5938	1423.4797	-129.4207	3069.3174	1394.6045	-120.81002	3070.7634	1397.2626	-158.9976	3113.3125	1056.4338	-8.1695986	3118.1301	1046.5255	-257.90955	3281.575	1072.9769	-50.96719	3283.2251	1070.7667	-169.65482	3288.4236	1128.9824	-119.62583	3295.9089	1103.6891	-130.57063	3298.843	1100.2137	-91.208565	3034.1382	548.41455	8.7959261	2972.9241	652.88397	-47.8839	2983.6438	737.4007	-28.942917	3027.9631	864.97369	-7.9933901	3080.7412	692.84155	36.527077	3120.3943	835.56128	66.716286	3109.3835	789.67651	71.445412	3103.032	760.69135	67.442734	3070.5396	779.30695	69.494408	3015.9905	470.72772	11.67175	2969.2246	468.47327	-50.462952	2986.7886	214.44563	-62.290577	3036.8354	100.57754	-30.452181	2970.7097	411.81534	-79.361649	2964.1941	384.33276	-72.204056	2983.9275	385.06723	-105.47183	3109.1433	65.586113	-66.486572	2891.7202	76.505569	-68.162949	2954.0469	121.85746	-62.566727	2929.5852	106.46617	-52.403206	2925.3354	112.23707	-89.941719	3242.3032	507.10529	-271.53107	3131.2744	569.49756	-228.62177	3102.8059	652.74591	-222.86896	3092.6521	787.20654	-223.9409	3211.0225	660.18634	-291.81961	3195.4187	805.40125	-310.77765	3210.5615	757.59918	-316.63519	3201.8193	730.07501	-315.0062	3239.9131	732.63367	-307.97266	3289.3257	461.67679	-275.09879	3251.3301	414.93884	-234.66658	3498.6733	295.35577	-247.05904	3454.343	265.25989	-206.79221	3573.6577	224.64583	-230.43948	3303.7058	371.98093	-174.51712	3328.2292	358.27524	-166.97824	3317.5376	342.30508	-199.32335	3629.8982	281.22601	-189.77344	3548.6587	77.48819	-185.45113	3520.8713	146.36401	-192.19931
335	3.34	3507.1912	124.04277	-178.50235	3505.8237	123.26663	-216.68562	3064.2305	1426.184	-128.83777	3055.2903	1396.7538	-120.90886	3056.8459	1399.4471	-159.09575	3098.7544	1058.1874	-8.0354347	3104.4448	1047.9768	-257.75647	3266.8508	1074.9329	-50.728607	3269.3665	1072.0193	-169.38126	3274.0449	1130.6604	-119.72318	3281.676	1105.269	-130.39011	3284.375	1102.031	-90.966064	3027.2029	548.05658	9.4306335	2963.4771	651.53046	-46.429798	2972.6196	736.91522	-28.188173	3014.9949	865.1474	-7.0628514	3071.0818	693.49237	37.069096	3108.0256	837.11603	67.20063	3096.6052	791.4903	72.63102	3092.1367	762.09467	67.77932	3059.26	779.93842	69.749474	3010.1924	470.21243	12.707706	2960.9731	467.1814	-48.111794	2984.3125	213.41817	-61.509563	3036.6406	100.49043	-30.297585	2963.9504	410.59747	-77.687843	2958.3586	382.96985	-70.582588	2977.7429	383.94171	-104.17069	3109.3169	65.46312	-66.461128	2891.5876	76.042831	-68.012321	2953.8042	121.53015	-62.398479	2929.3875	106.19045	-52.244144	2925.2246	111.6256	-89.907593	3214.0815	506.03073	-273.22797	3106.0396	571.64899	-230.3374	3080.4409	655.29114	-224.54022	3075.0486	789.7688	-224.5732	3187.8591	659.67902	-292.89197	3177.281	805.83734	-311.11374	3190.991	757.52765	-317.36011	3181.686	730.37885	-316.05194	3219.5723	731.67426	-308.25085	3260.1367	461.09631	-276.9021	3222.7732	414.69379	-236.26363	3472.8647	300.58643	-247.72438	3429.2708	269.83087	-206.93735	3548.8997	231.3045	-230.54576	3276.4617	371.88727	-176.52216	3300.4639	359.29245	-168.16878	3290.9548	343.14667	-201.3168	3603.6431	290.32108	-191.19342	3530.2573	83.291962	-183.92574	3499.48	151.2173	-190.0034
336	3.35	3482.9929	130.9735	-176.4369	3480.5811	130.14586	-214.36462	3049.9045	1428.4662	-128.61555	3041.2205	1398.8188	-120.92467	3043.1533	1401.4012	-159.24268	3083.9766	1060.1539	-7.6461272	3090.7961	1049.556	-257.79761	3252.3071	1076.8054	-50.457237	3255.6194	1073.1747	-169.06474	3259.686	1132.1597	-119.65796	3267.5769	1106.7871	-130.14709	3269.9656	1103.7651	-90.683868	3020.7432	547.40479	10.150171	2954.7515	649.67957	-44.926487	2962.155	735.41577	-27.343172	3002.3513	865.02252	-6.2017212	3061.7903	694.08185	37.644417	3096.1521	838.4278	67.494705	3086.1218	792.20245	72.44838	3081.4661	762.68121	68.208038	3048.5503	780.53333	70.735321	3004.6936	469.52139	13.506827	2954.5532	465.94067	-46.272987	2982.3215	212.50903	-60.907379	3036.4373	100.31639	-30.185074	2958.499	409.05084	-76.542091	2953.3469	381.50815	-69.347458	2972.4734	382.83121	-103.00862	3109.2805	65.51989	-66.983818	2891.4675	75.621758	-67.874153	2953.6196	121.15511	-62.29055	2929.1169	106.0704	-51.970745	2925.0168	111.21646	-89.815071	3185.9785	505.78964	-274.83575	3080.2192	574.3382	-231.35965	3058.5098	658.39343	-225.64767	3057.1978	792.88806	-224.86925	3165.2883	659.78046	-293.81296	3160.1248	806.32086	-311.18616	3172.0898	757.73315	-318.0386	3161.8994	730.646	-317.1106	3199.6294	730.91479	-308.63531	3231.166	461.74988	-279.21359	3194.0278	415.25836	-237.22661	3446.3452	305.45633	-248.30084	3403.5911	274.49783	-207.27696	3522.8867	238.06573	-230.99579	3248.0811	371.97653	-178.21367	3272.7559	360.16025	-169.29233	3263.627	344.34229	-202.69077	3578.2725	297.86478	-193.52811	3506.0601	90.686981	-181.70264	3475.03	158.07344	-187.73221
337	3.36	3455.2546	138.35223	-174.04364	3451.9612	137.03242	-212.05952	3036.1614	1430.1559	-128.96825	3027.1921	1400.8611	-121.16117	3029.335	1403.4247	-159.44351	3069.5137	1061.7769	-7.5916762	3077.437	1051.1445	-257.87436	3237.9854	1078.728	-50.110256	3241.9282	1074.3646	-168.71405	3245.3945	1133.6729	-119.52118	3253.427	1108.2607	-129.79893	3255.6914	1105.5782	-90.349442	3014.5708	547.13055	10.794761	2946.7847	647.30042	-43.900612	2952.0852	733.53253	-26.25873	2990.2815	864.12463	-5.7194514	3052.8132	694.53094	38.306606	3084.6541	839.50171	67.680687	3075.4751	792.7475	72.697159	3071.282	763.37927	68.861137	3037.9316	781.14429	70.811707	2999.3137	468.71613	14.264235	2950.6826	464.28815	-45.623913	2980.573	211.57114	-60.439259	3036.3291	100.19319	-29.969309	2953.3311	408.03528	-75.587326	2949.0811	380.12259	-68.550919	2968.0894	381.90906	-102.25178	3109.2612	65.491676	-66.972191	2891.4211	75.30191	-67.743057	2953.2192	120.99595	-62.062027	2928.9197	105.91827	-51.845634	2924.9143	110.721	-89.685638	3158.0308	506.24496	-276.22137	3055.9163	577.39514	-231.53923	3036.4836	662.09863	-226.2207	3040.0393	796.1106	-225.41783	3143.5986	660.51953	-295.13052	3143.2595	807.31433	-311.3009	3153.5525	758.3833	-318.72824	3143.1431	731.71057	-318.1608	3179.9822	730.6983	-309.00516	3202.1621	462.47705	-280.45618	3165.0505	416.24438	-237.78433	3418.9563	309.99091	-248.99889	3376.8079	278.76978	-207.4873	3496.2625	243.54118	-231.27649	3219.9043	373.45297	-178.49631	3245.2727	361.77118	-170.49083	3235.8545	346.26633	-203.47009	3553.4341	302.75525	-195.78107	3477.168	97.663719	-179.18909	3447.5435	165.22086	-185.8493
